<!-- Generated by IcoMoon.io -->
<svg version="1.1" xmlns="http://www.w3.org/2000/svg" width="1024" height="1024" viewBox="0 0 1024 1024">
<title></title>
<g id="icomoon-ignore">
</g>
<path fill="#000" d="M899.072 397.312h-51.2v-8.192c-2.048-184.32-151.552-335.872-335.872-335.872s-335.872 151.552-335.872 335.872v8.192h-51.2c-55.296 0-102.4 45.056-102.4 102.4v69.632c0 55.296 45.056 102.4 102.4 102.4h53.248c12.288 137.216 124.928 245.76 264.192 249.856 6.144 24.576 30.72 43.008 57.344 43.008 32.768 0 59.392-26.624 59.392-59.392s-26.624-59.392-59.392-59.392c-26.624 0-49.152 18.432-57.344 43.008-129.024-6.144-231.424-112.64-231.424-241.664v-258.048c0-165.888 135.168-303.104 303.104-303.104 165.888 0 303.104 135.168 303.104 303.104v264.192c0 8.192 8.192 16.384 16.384 16.384h67.584c55.296 0 102.4-45.056 102.4-102.4v-69.632c-4.096-55.296-49.152-100.352-104.448-100.352zM499.712 878.592c14.336 0 26.624 12.288 26.624 26.624s-12.288 26.624-26.624 26.624-28.672-12.288-28.672-26.624c0-14.336 12.288-26.624 28.672-26.624zM55.296 569.344v-69.632c0-38.912 30.72-69.632 69.632-69.632h51.2v208.896h-51.2c-38.912-2.048-69.632-32.768-69.632-69.632zM966.656 569.344c0 38.912-30.72 69.632-69.632 69.632h-51.2v-208.896h51.2c38.912 0 69.632 30.72 69.632 69.632v69.632z"></path>
</svg>
