<!-- Generated by IcoMoon.io -->
<svg version="1.1" xmlns="http://www.w3.org/2000/svg" width="1024" height="1024" viewBox="0 0 1024 1024">
<title></title>
<g id="icomoon-ignore">
</g>
<path fill="#000" d="M672.768 528.384c9.216 0 16.384-7.168 16.384-16.384s-7.168-16.384-16.384-16.384h-144.384v-144.384c0-9.216-7.168-16.384-16.384-16.384s-16.384 7.168-16.384 16.384v144.384h-144.384c-9.216 0-16.384 7.168-16.384 16.384s7.168 16.384 16.384 16.384h144.384v144.384c0 9.216 7.168 16.384 16.384 16.384s16.384-7.168 16.384-16.384v-144.384h144.384z"></path>
<path fill="#000" d="M351.232 802.816h-105.472c-13.312 0-24.576-11.264-24.576-24.576v-105.472c0-9.216-7.168-16.384-16.384-16.384s-16.384 7.168-16.384 16.384v105.472c0 31.744 25.6 57.344 57.344 57.344h105.472c9.216 0 16.384-7.168 16.384-16.384s-7.168-16.384-16.384-16.384z"></path>
<path fill="#000" d="M204.8 367.616c9.216 0 16.384-7.168 16.384-16.384v-105.472c0-13.312 11.264-24.576 24.576-24.576h105.472c9.216 0 16.384-7.168 16.384-16.384s-7.168-16.384-16.384-16.384h-105.472c-31.744 0-57.344 25.6-57.344 57.344v105.472c0 9.216 7.168 16.384 16.384 16.384z"></path>
<path fill="#000" d="M819.2 656.384c-9.216 0-16.384 7.168-16.384 16.384v105.472c0 13.312-11.264 24.576-24.576 24.576h-105.472c-9.216 0-16.384 7.168-16.384 16.384s7.168 16.384 16.384 16.384h105.472c31.744 0 57.344-25.6 57.344-57.344v-105.472c0-9.216-7.168-16.384-16.384-16.384z"></path>
<path fill="#000" d="M778.24 188.416h-105.472c-9.216 0-16.384 7.168-16.384 16.384s7.168 16.384 16.384 16.384h105.472c13.312 0 24.576 11.264 24.576 24.576v105.472c0 9.216 7.168 16.384 16.384 16.384s16.384-7.168 16.384-16.384v-105.472c0-31.744-25.6-57.344-57.344-57.344z"></path>
</svg>
